# xmcd CD database file
#
# Track frame offsets:
#	150
#	11483
#	26916
#	39965
#	55257
#	74340
#	91774
#	106789
#	118747
#	134037
#	146841
#	165329
#	179355
#	191620
#	207540
#	225548
#	237471
#	252852
#
# Disc length: 3591 seconds
#
# Revision: 1
# Processed by: cddbd v1.5.2PL0 Copyright (c) Steve Scherf et al.
# Submitted via: CDex 1.51
#
DISCID=fd0e0512
DTITLE=Various Artist - Countrys Got Heart_I Still Believe in You Disc 1
DYEAR=1900
DGENRE=Country
TTITLE0=01-Timber, I'm Falling In Love - Patty Loveless
TTITLE1=02-Achy Breaky Heart - Billy Ray Cyrus
TTITLE2=03-Somebody's Knockin' - Terri Gibbs
TTITLE3=04-Eighteen Wheels and a Dozen Roses - Kathy Mattea
TTITLE4=05-When I Call Your Name - Vince Gill
TTITLE5=06-Is There Life Out There - Reba McEntire
TTITLE6=07-I'd Just Love to Lay You Down - Conway Twitty
TTITLE7=08-One's on the Way - Loretta Lynn
TTITLE8=09-What's a Memory Like You (Doing in a Love Like This) - John Schneider
TTITLE9=10-The Chair - George Strait
TTITLE10=11-She's in Love with the Boy - Trisha Yearwood
TTITLE11=12-(If Loving You is Wrong) I Don't Want to be Right - Barbara Mandrell
TTITLE12=13-Linda on My Mind - Conway Twitty
TTITLE13=14-I Cross My Heart - George Strait
TTITLE14=15-I Still Believe in You - Vince Gill
TTITLE15=16-After the Fire is Gone - Conway Twitty and Loretta Lynn
TTITLE16=17-Whoever's in New England - Reba McEntire
TTITLE17=18-Secret Love - Freddie Fender
EXTD=
EXTT0=
EXTT1=
EXTT2=
EXTT3=
EXTT4=
EXTT5=
EXTT6=
EXTT7=
EXTT8=
EXTT9=
EXTT10=
EXTT11=
EXTT12=
EXTT13=
EXTT14=
EXTT15=
EXTT16=
EXTT17=
PLAYORDER=
